<?xml version="1.0" encoding="utf-8"?>
<!-- Generator: Adobe Illustrator 24.3.0, SVG Export Plug-In . SVG Version: 6.00 Build 0)  -->
<svg version="1.1" id="Logo" xmlns="http://www.w3.org/2000/svg" xmlns:xlink="http://www.w3.org/1999/xlink" x="0px" y="0px"
	 viewBox="0 0 411.6 96.64" style="enable-background:new 0 0 411.6 96.64;" xml:space="preserve">
<style type="text/css">

<!--
  file based on official data "U_Logo_MadeWith_RichBlack_Knockout_RGB.svg"
  and modified some .st0 style to .st3 for text coloring.
  note that this SVG file respects original data that doesn't set black color.
-->

@media (prefers-color-scheme: dark) {
	.st0{fill:#FFFFFF;}
	.st1{fill:#CCCCCC;}
	.st2{fill:#A6A6A6;}
	.st3{fill:#FFFFFF;}
}

@media (prefers-color-scheme: light) {
	.st0{fill:#808080;}
	.st1{fill:#4C4C4C;}
	.st2{}
	.st3{}
}
</style>
<path class="st3" d="M242.02,52.61V25.2h11.5V53c0,4.55,2.34,7.6,7.99,7.6c5.33,0,7.86-3.25,7.86-7.79V25.2h11.5v27.41
	c0,10.72-6.43,17.21-19.35,17.21C248.52,69.82,242.02,63.45,242.02,52.61z"/>
<path class="st3" d="M286.25,35.72h10.2v4.55h0.2c2.47-3.57,5.65-5.52,10.26-5.52c7.27,0,11.56,5.2,11.56,12.6v21.63h-10.59V49.49
	c0-3.51-1.75-5.91-5.2-5.91c-3.51,0-5.84,2.92-5.84,7.01v18.38h-10.59V35.72z"/>
<path class="st3" d="M323.91,22.54h10.59v8.58h-10.59V22.54z M323.91,35.72h10.59v33.25h-10.59V35.72z"/>
<path class="st3" d="M342.83,60.21V44.3h-4.42v-8.58h4.42V25.2h10.33v10.52h6.04v8.58h-6.04v13.63c0,2.6,1.43,3.25,3.7,3.25
	c0.91,0,1.95-0.07,2.34-0.07v7.73c-0.91,0.26-2.92,0.52-5.78,0.52C347.24,69.36,342.83,67.35,342.83,60.21z"/>
<path class="st3" d="M365.75,71.7h3.64c3.12,0,4.35-1.23,4.35-3.51c0-1.43-0.65-3.38-2.01-6.88l-9.81-25.59h11.17l4.48,14.16
	c1.04,3.25,2.08,7.66,2.08,7.66h0.13c0,0,0.91-4.42,1.95-7.66l4.35-14.16h10.59l-11.5,33.71c-2.66,7.79-5.85,10.52-12.53,10.52
	h-6.88V71.7z"/>
<path class="st1" d="M219.53,67.62V22.54L180.49,0v17.29l15.3,8.83c0.55,0.31,0.57,1.17,0,1.48c0,0-18.18,10.5-18.18,10.5
	c-0.55,0.32-1.2,0.3-1.71,0l-18.18-10.5c-0.56-0.3-0.57-1.18,0-1.48l15.29-8.83l0-17.29l-39.04,22.54v45.08l0-0.21v0.21l14.97-8.64
	l0-17.66c-0.01-0.63,0.73-1.08,1.28-0.74l18.18,10.5c0.55,0.32,0.86,0.89,0.86,1.48l0,20.99c0.01,0.63-0.73,1.08-1.28,0.74
	l-15.3-8.83l-14.97,8.64l39.04,22.54l39.04-22.54l-14.97-8.64l-15.3,8.83c-0.54,0.33-1.3-0.1-1.28-0.74c0,0,0-20.99,0-20.99
	c0-0.63,0.35-1.19,0.86-1.48l18.18-10.5c0.54-0.33,1.3,0.09,1.28,0.74v17.66L219.53,67.62z"/>
<path class="st2" d="M176.75,96.64l39.04-22.54l-14.97-8.64l-15.3,8.83c-0.54,0.33-1.3-0.1-1.28-0.74c0,0,0-20.99,0-20.99
	c0-0.63,0.35-1.19,0.86-1.48l18.18-10.5c0.54-0.33,1.3,0.09,1.28,0.74c0,0,0,17.66,0,17.66l14.97,8.64V22.54l-42.78,24.7
	L176.75,96.64z"/>
<path class="st0" d="M180.49,0v17.29l15.3,8.83c0.55,0.31,0.57,1.17,0,1.48c0,0-18.18,10.5-18.18,10.5c-0.55,0.32-1.2,0.3-1.71,0
	l-18.18-10.5c-0.56-0.3-0.57-1.18,0-1.48c0,0,15.29-8.83,15.29-8.83l0-17.29l-39.04,22.54l42.78,24.7l42.78-24.7L180.49,0z"/>
<path class="st1" d="M167.99,74.29l-15.3-8.83l-14.97,8.64l39.04,22.54l0-49.4l-42.78-24.7v45.08l0-0.21v0.21l14.97-8.64l0-17.66
	c-0.01-0.63,0.73-1.08,1.28-0.74c0,0,18.18,10.5,18.18,10.5c0.55,0.32,0.86,0.89,0.86,1.48l0,20.99
	C169.28,74.17,168.54,74.62,167.99,74.29z"/>
<g>
	<path class="st3" d="M411.27,38.31c-0.22-0.51-0.52-0.96-0.91-1.35c-0.39-0.39-0.84-0.69-1.35-0.91c-0.51-0.22-1.06-0.33-1.65-0.33
		s-1.14,0.11-1.65,0.33c-0.51,0.22-0.96,0.52-1.35,0.91s-0.69,0.84-0.91,1.35c-0.22,0.51-0.33,1.06-0.33,1.65
		c0,0.59,0.11,1.14,0.33,1.65c0.22,0.51,0.52,0.96,0.91,1.35s0.84,0.69,1.35,0.91c0.51,0.22,1.06,0.33,1.65,0.33
		s1.14-0.11,1.65-0.33c0.51-0.22,0.96-0.52,1.35-0.91c0.39-0.39,0.69-0.84,0.91-1.35c0.22-0.51,0.33-1.06,0.33-1.65
		C411.6,39.37,411.49,38.82,411.27,38.31z M410.14,41.58c-0.29,0.49-0.68,0.88-1.17,1.17c-0.49,0.29-1.03,0.43-1.62,0.43
		c-0.59,0-1.13-0.14-1.62-0.43c-0.49-0.29-0.88-0.68-1.17-1.17c-0.29-0.49-0.43-1.03-0.43-1.62c0-0.59,0.14-1.13,0.43-1.62
		c0.29-0.49,0.68-0.88,1.17-1.17c0.49-0.29,1.03-0.43,1.62-0.43c0.59,0,1.13,0.14,1.62,0.43c0.49,0.29,0.88,0.68,1.17,1.17
		c0.29,0.49,0.43,1.03,0.43,1.62C410.58,40.55,410.43,41.09,410.14,41.58z"/>
	<path class="st3" d="M408.84,39.93c0.14-0.2,0.21-0.44,0.21-0.73c0-0.28-0.07-0.52-0.2-0.7c-0.13-0.19-0.29-0.32-0.48-0.41
		c-0.19-0.09-0.36-0.13-0.52-0.13h-1.98v3.91h0.86v-1.33h0.85l0.69,1.33h0.94l-0.81-1.52C408.57,40.24,408.72,40.11,408.84,39.93z
		 M406.73,38.59h0.82c0.1,0,0.22,0.04,0.36,0.13c0.14,0.09,0.2,0.25,0.2,0.49c0,0.23-0.07,0.41-0.2,0.52
		c-0.14,0.12-0.26,0.17-0.38,0.17h-0.8V38.59z"/>
</g>
<g>
	<g>
		<path class="st3" d="M0,22.53h4.89l5.16,12.61h0.22l5.16-12.61h4.89V41.3h-3.84V29.09h-0.16l-4.85,12.12H8.85L4,29.04H3.84V41.3H0
			V22.53z"/>
		<path class="st3" d="M33.76,41.3h-4.25l6.47-18.77h5.11l6.46,18.77h-4.25l-4.69-14.48h-0.15L33.76,41.3z M33.5,33.92h10.03v3.1
			H33.5V33.92z"/>
		<path class="st3" d="M63.41,41.3h-6.64V22.53h6.7c1.88,0,3.51,0.37,4.87,1.12c1.36,0.75,2.41,1.82,3.14,3.22s1.1,3.07,1.1,5.02
			c0,1.96-0.37,3.64-1.1,5.04s-1.79,2.48-3.16,3.24C66.95,40.93,65.31,41.3,63.41,41.3z M60.72,37.9h2.52
			c1.17,0,2.16-0.21,2.96-0.63c0.8-0.42,1.41-1.07,1.81-1.95c0.41-0.88,0.61-2.02,0.61-3.42c0-1.39-0.2-2.52-0.61-3.4
			c-0.41-0.88-1.01-1.53-1.81-1.94c-0.8-0.42-1.79-0.62-2.96-0.62h-2.53V37.9z"/>
		<path class="st3" d="M82.46,41.3V22.53h12.63v3.27h-8.67v4.47h8.02v3.27h-8.02v4.48h8.7v3.27H82.46z"/>
		<path class="st3" d="M11.22,68.99L5.86,50.22h4.33l3.1,13.04h0.16l3.42-13.04h3.71l3.41,13.07h0.17l3.1-13.07h4.33l-5.36,18.77
			h-3.86l-3.57-12.27h-0.15l-3.56,12.27H11.22z"/>
		<path class="st3" d="M44.62,50.22v18.77h-3.96V50.22H44.62z"/>
		<path class="st3" d="M54.13,53.49v-3.27h15.39v3.27h-5.74v15.5h-3.92v-15.5H54.13z"/>
		<path class="st3" d="M79.02,68.99V50.22h3.96v7.74h8.04v-7.74h3.95v18.77h-3.95v-7.75h-8.04v7.75H79.02z"/>
	</g>
</g>
</svg>
